<svg xmlns="http://www.w3.org/2000/svg" xmlns:xlink="http://www.w3.org/1999/xlink" width="274.25" height="256" class="icon" p-id="3110" t="1608114813211" version="1.1" viewBox="0 0 1097 1024"><defs><style type="text/css"/></defs><path fill="#2C2F46" d="M554.786194 443.028776c76.068245 0 137.946837-57.636324 137.946837-128.584592S630.854439 185.786449 554.786194 185.786449 416.912499 243.495916 416.912499 314.444184s61.951734 128.584592 137.946837 128.584592z m0-194.047169c38.326693 0 69.265989 29.62273 69.265989 66.194002s-30.939296 66.194002-69.265989 66.194002c-38.180408 0-69.192846-29.695873-69.192847-66.194002 0-36.571272 31.012439-66.194002 69.192847-66.194002zM421.301052 637.514799a699.096432 699.096432 0 0 0 101.009852 98.376721l32.694717 25.01475 32.548432-25.234177a725.135178 725.135178 0 0 0 100.790426-98.742434c66.41343-83.236215 148.991361-203.921412 167.715852-308.368964 3.583985-23.771327 3.657127-38.180408 3.657127-39.789544 0.658283-78.043094-31.670721-151.405065-90.989324-206.261973A313.269515 313.269515 0 0 0 554.786194 0.004389C474.695108 0.004389 398.846291 29.261406 341.429394 82.436035c-59.611173 55.22262-92.159605 128.950304-91.574465 207.578539 0 1.243423 0.146285 15.725647 3.583985 38.399836 20.041057 111.761807 113.224658 241.004681 167.862138 309.100389z m133.485142-556.175902c125.732033 0 228.643592 96.694443 227.692738 216.867642 0 0 0 10.898239-2.706274 28.891305-15.067364 84.113925-86.088774 188.415193-142.993673 259.582887-0.438855 0.877711-1.389708 1.682279-1.828563 2.121134-39.570116 46.445515-80.164228 77.823666-80.164228 77.823667s-40.520969-30.939296-80.164228-77.384812c-0.438855-0.438855-1.316566-1.316566-1.755421-2.194276-56.978042-70.72884-127.999451-175.39582-142.993673-259.144032-2.779417-17.993066-2.779417-28.891305-2.779417-28.891305-0.877711-120.173199 102.033848-217.67221 227.692739-217.67221zM226.01046 1024h752.783059c64.731151 0 118.417778-47.323226 118.417779-107.226969s-53.686627-107.226969-118.417779-107.226969H118.417778c-24.356467 0-42.861531-16.38393-42.86153-35.108421 0-18.651349 18.505064-35.108421 42.86153-35.108421h134.435995c20.845625 0 37.741553-16.09136 37.741553-35.986131a36.936985 36.936985 0 0 0-37.741553-36.059275H118.417778C53.686627 667.283814 0 714.60704 0 774.510784c0 59.830601 53.686627 107.153826 118.417778 107.153826h860.302599c24.356467 0 42.861531 16.38393 42.861531 35.108421s-18.505064 35.108421-42.861531 35.108421H225.937317a36.936985 36.936985 0 0 0-37.741552 36.059274c0 19.894772 16.895928 36.059274 37.741552 36.059274z" p-id="3111"/></svg>