<svg xmlns="http://www.w3.org/2000/svg" xmlns:xlink="http://www.w3.org/1999/xlink" width="64" height="64" class="icon" p-id="2610" t="1602830188599" version="1.1" viewBox="0 0 1024 1024"><defs><style type="text/css"/></defs><path fill="#1890FF" d="M910.222222 403.911111C910.222222 179.2 722.488889-2.844444 494.933333 5.688889 287.288889 14.222222 119.466667 184.888889 113.777778 392.533333c-2.844444 73.955556 17.066667 142.222222 48.355555 199.111111 59.733333 122.311111 164.977778 213.333333 236.088889 307.2 31.288889 39.822222 48.355556 68.266667 62.577778 91.022223 22.755556 36.977778 76.8 36.977778 102.4 0 17.066667-25.6 28.444444-42.666667 62.577778-91.022223 71.111111-99.555556 179.2-184.888889 236.088889-307.2 31.288889-54.044444 48.355556-119.466667 48.355555-187.733333z" p-id="2611"/><path fill="#FFF" d="M462.103602 729.511997a335.644444 335.644444 0 1 0 101.030096-663.642744 335.644444 335.644444 0 1 0-101.030096 663.642744Z" p-id="2612"/><path fill="#1890FF" d="M329.955556 204.8l-71.111112 176.355556L568.888889 500.622222l113.777778-159.288889-352.711111-136.533333z m392.533333 199.111111l-34.133333 91.022222 59.733333 62.577778 62.577778-156.444444-88.177778 2.844444z m-42.666667-25.6l-73.955555 102.4 62.577777 25.6 42.666667-113.777778-31.288889-14.222222z m-375.466666 68.266667l42.666666 14.222222-14.222222 34.133333H253.155556v31.288889h93.866666v-2.844444l25.6-54.044445 45.511111 17.066667 14.222223-34.133333-116.622223-45.511111-11.377777 39.822222z m0 0" p-id="2613"/></svg>